<svg xmlns="http://www.w3.org/2000/svg" width="600" height="600" viewBox="0 0 600 600" role="img" aria-label="Flor amarilla">
  <defs>
    <radialGradient id="fondo5" cx="50%" cy="42%" r="72%">
      <stop offset="0%" stop-color="#ffffff"/>
      <stop offset="100%" stop-color="#fdf6e6"/>
    </radialGradient>
    <linearGradient id="petalo5" x1="0" y1="0" x2="0" y2="1">
      <stop offset="0%" stop-color="#ffdf6b"/>
      <stop offset="100%" stop-color="#dd9214"/>
    </linearGradient>
    <radialGradient id="nucleo5" cx="42%" cy="38%" r="70%">
      <stop offset="0%" stop-color="#8c5a10"/>
      <stop offset="100%" stop-color="#4a2c05"/>
    </radialGradient>
  </defs>
  <rect width="600" height="600" fill="url(#fondo5)"/>
  <g opacity="0.96">
    <ellipse cx="300" cy="174" rx="51.00000000000001" ry="93" fill="url(#petalo5)" transform="rotate(20 300 300)"/>
    <ellipse cx="300" cy="174" rx="51.00000000000001" ry="93" fill="url(#petalo5)" transform="rotate(52.72727272727273 300 300)"/>
    <ellipse cx="300" cy="174" rx="51.00000000000001" ry="93" fill="url(#petalo5)" transform="rotate(85.45454545454545 300 300)"/>
    <ellipse cx="300" cy="174" rx="51.00000000000001" ry="93" fill="url(#petalo5)" transform="rotate(118.18181818181819 300 300)"/>
    <ellipse cx="300" cy="174" rx="51.00000000000001" ry="93" fill="url(#petalo5)" transform="rotate(150.9090909090909 300 300)"/>
    <ellipse cx="300" cy="174" rx="51.00000000000001" ry="93" fill="url(#petalo5)" transform="rotate(183.63636363636363 300 300)"/>
    <ellipse cx="300" cy="174" rx="51.00000000000001" ry="93" fill="url(#petalo5)" transform="rotate(216.36363636363637 300 300)"/>
    <ellipse cx="300" cy="174" rx="51.00000000000001" ry="93" fill="url(#petalo5)" transform="rotate(249.0909090909091 300 300)"/>
    <ellipse cx="300" cy="174" rx="51.00000000000001" ry="93" fill="url(#petalo5)" transform="rotate(281.8181818181818 300 300)"/>
    <ellipse cx="300" cy="174" rx="51.00000000000001" ry="93" fill="url(#petalo5)" transform="rotate(314.54545454545456 300 300)"/>
    <ellipse cx="300" cy="174" rx="51.00000000000001" ry="93" fill="url(#petalo5)" transform="rotate(347.27272727272725 300 300)"/>
  </g>
  <circle cx="300" cy="300" r="52.8" fill="url(#nucleo5)"/>
  <path d="M 300 480
           c 0 -30 45 -30 45 0
           c 0 27 -45 51.00000000000001 -45 51.00000000000001
           c 0 0 -45 -24 -45 -51.00000000000001
           c 0 -30 45 -30 45 0 z"
        fill="#dd9214" opacity="0.5"/>
</svg>
